<svg id="Layer_1" data-name="Layer 1" xmlns="http://www.w3.org/2000/svg" viewBox="0 0 637.92 108.88"><defs><style>.cls-1,.cls-2{fill:#2a2a86;}.cls-2{fill-rule:evenodd;}</style></defs><path class="cls-1" d="M577.68,43.52c5.09,5.16,13.5,3.84,16.18-2.73,1.68-4.11,1-6.76-3.06-8.1a10.15,10.15,0,0,0-2.57-.48c-2.24-.14-3.72.87-3.78,2.68a8.06,8.06,0,0,1-5,7.61C578.83,42.78,578.28,43.17,577.68,43.52Z"/><path class="cls-1" d="M625.33,63.13C622.49,60.28,607.74,78,605,75.79s15.38-25.38,16.11-26.38c-3.08-.17-9.65-1.22-10.87,2.32,0,.08-6-3.4-10.34-2-9.73,2.11-19.14,13.12-22.29,22-1.42,4.95-7.4,8-9.21,5.29-2.69-4.07,16.24-24.71,18.15-27.07-3.81,0-7.19.05-10.76,0-1,0-16.17,25.93-26.5,25.86a8.18,8.18,0,0,1-3.65-.68c-1.7-.74-2.38-2.29-2-4.68s1.62-5.25,3.8-8.62a22.15,22.15,0,0,1,3.35-3.88A27.09,27.09,0,0,1,554.47,55a6.48,6.48,0,0,1,3.06-1.16,1.56,1.56,0,0,1,1.75,1.11c.34,1.15-.07,2.39-1.22,3.71a11.35,11.35,0,0,1-4.25,3q-.76.28-1,1.56a5.61,5.61,0,0,0,.17,2.54,3.72,3.72,0,0,0,1.43,2,2.93,2.93,0,0,0,2.89.05A11.64,11.64,0,0,0,562,64.23,15.06,15.06,0,0,0,564.76,59a9.21,9.21,0,0,0,.06-5.35,6.51,6.51,0,0,0-3.56-4,11.41,11.41,0,0,0-8-1,19.48,19.48,0,0,0-7.56,3.82,30.05,30.05,0,0,0-6.25,6.92,26.64,26.64,0,0,0-3.91,8.24C533.7,75,528.3,77,525.29,77c-5.14,0,5-13.86,9.06-18.65,11.64-13.42-7.8-9.7-10.14-9.29.12-.68-1-8.38-7.33-6.49s-1.4,7.21-.94,7.76c.91,1.08.63,1.88-.24,2.78-4.84,5.07-19.29,24.76-22,22.58s15.38-25.38,16.11-26.38c-3.08-.17-9.65-1.22-10.87,2.33,0,.08-5.95-3.41-10.34-2C473,53,458.17,79.33,468.75,82.81a10.6,10.6,0,0,0,5.16,0c2.47-.69,2.47-.69,8-3.93,1.58,4.31,5,4.58,9.27,4.11,13.44-1.6,22.59-17.17,27.62-23.62,2.1-2.69,3.32-2.88,7.1-1.66-1,1-9.39,11.84-10.81,17.77C513.72,81,517.58,83,521.76,83s7.42-1.34,12.27-5.48A10.94,10.94,0,0,0,543.54,83c4.91,0,13.52-4.86,14.32-5.29,1.52,4.35,3.94,5.27,8,5.42,9.08.34,10.61-4.28,10.76-4.38a4.94,4.94,0,0,0,3.44,4.12,10.76,10.76,0,0,0,5.17,0c2.46-.69,2.46-.69,8-3.93,1.58,4.3,5,4.52,9.27,4.1C615.09,81.77,628.17,66,625.33,63.13ZM475,75.91c-3.55-2.29,10.81-22.1,20.24-18.41C492.17,62.64,481.42,80,475,75.91ZM586.37,76c-3.55-2.29,10.85-22.7,20.28-19C603.55,62.1,592.75,80.08,586.37,76Z"/><path class="cls-1" d="M493.61,7.08a7.92,7.92,0,0,0-3.26-4A12.08,12.08,0,0,0,484.66,1a26.59,26.59,0,0,0-6.35.16A39.61,39.61,0,0,0,472,2.56c-2,.64-3.91,1.3-5.59,2C465.25,5,464.1,5.46,463,6L459.67,7.5c-2.14,1-4.25,2.14-6.28,3.33s-4,2.5-6,3.86c-3.81,2.64-13.08,11.62-13.62,12.16a8.86,8.86,0,0,1-1.7,1.34,2,2,0,0,1-1.52.29,2.45,2.45,0,0,1-1-.48c-.35-.28-.68-.54-1-.78a11.3,11.3,0,0,1-3-4.65,14.7,14.7,0,0,1-.82-5.57,7,7,0,0,1,1.29-3.61A11.79,11.79,0,0,1,429,10.57a15.74,15.74,0,0,1,3.7-1.89,15.06,15.06,0,0,1,3.84-.92c6-.25,10.06,2,10.5,1.9a1.67,1.67,0,0,0,1-.54,2,2,0,0,0,.45-1,1.71,1.71,0,0,0-.32-1.27A20.48,20.48,0,0,0,439.83,3,32.9,32.9,0,0,0,428,3.63a19.42,19.42,0,0,0-2.78,1.06,16,16,0,0,0-2.11,1.25,13.57,13.57,0,0,0-1.87,1.56,11.79,11.79,0,0,0-2.77,3.79,12,12,0,0,0-1.19,4.07,15,15,0,0,0,.16,4.28,16.38,16.38,0,0,0,1.33,4.08,13.91,13.91,0,0,0,2.36,3.46,16.46,16.46,0,0,0,1.84,1.72,22.86,22.86,0,0,0,2,1.46,37.89,37.89,0,0,1,3.3,2.13s-2.29,3.63-3.25,5a29.8,29.8,0,0,0-2.63,4.56,29.24,29.24,0,0,0-1.47,3.43c-.4,1.15-.79,2.32-1.15,3.5a39.91,39.91,0,0,0-1.08,5.82,27.52,27.52,0,0,0,0,6.54,20.92,20.92,0,0,0,1.67,6.11A9.69,9.69,0,0,0,424.47,72a21.63,21.63,0,0,0,4.83,2,14.34,14.34,0,0,0,4.92.39,22.36,22.36,0,0,0,4.78-1,28.62,28.62,0,0,0,4.53-2c1.45-.8,2.85-1.63,4.2-2.52.4-.3.82-.6,1.25-.9s.88-.66,1.31-1l.35-.25.48-.32s-5.68,9.2-6.33,10.2c-1,1.55-2.07,3.14-3.19,4.7s-2.26,3.1-3.4,4.55-2.44,2.81-3.82,4.19A33.32,33.32,0,0,1,430,93.73a25.43,25.43,0,0,1-5,2.69,14.57,14.57,0,0,1-5.47,1c-.48,0-1.1,0-1.83-.07a14.27,14.27,0,0,1-2.13-.33,5.7,5.7,0,0,1-1.79-.77,2,2,0,0,1-.88-1.28,1.43,1.43,0,0,1,.51-1.44,8.12,8.12,0,0,0,1.51-1.78,6.43,6.43,0,0,0,.54-2,7.37,7.37,0,0,0,0-2.06,4.49,4.49,0,0,0-1.53-3.13,5.34,5.34,0,0,0-3.37-1.21h-.15a5.15,5.15,0,0,0-3.21,1A7.79,7.79,0,0,0,404.43,88a9,9,0,0,0-.52,4.49,8.59,8.59,0,0,0,2.17,4.58,10.36,10.36,0,0,0,3.9,2.82,20.92,20.92,0,0,0,4.61,1.29c.86.1,1.77.16,2.7.19s1.82,0,2.68,0h0a40.34,40.34,0,0,0,8-1.12,39.67,39.67,0,0,0,7.68-2.73A32.91,32.91,0,0,0,439,95.7c1-.66,2-1.35,3.06-2.06a39.42,39.42,0,0,0,8.44-8.17,116.41,116.41,0,0,0,6.61-9.63l3.2-5.18c1.06-1.72,2.11-3.46,3.12-5.18q1-1.68,1.95-3.36c.63-1.12,1.28-2.23,1.94-3.34,0,0,7.68-12.54,8.19-13.2a16.55,16.55,0,0,0,1.37-2.08,4.38,4.38,0,0,0,.63-2.13c0-.46-.21-1.29-1.6-1.55-1-.16-7.56,1-8.35,1.19a3.63,3.63,0,0,0-2.1,1.7c-.55,1-1.12,1.88-1.7,2.75s-1.17,1.76-1.78,2.62c-1.95,2.8-4,5.56-6.11,8.2a43,43,0,0,1-7.19,7.08,27.32,27.32,0,0,1-4,2.47A19,19,0,0,1,440,67.54a10.84,10.84,0,0,1-4.57,0A6,6,0,0,1,431.75,65a7,7,0,0,1-1.32-2.93,16.1,16.1,0,0,1-.29-3.48,23.31,23.31,0,0,1,.33-3.55c.2-1.18.42-2.28.68-3.28,1.15-4.53,5.36-12.95,5.67-13.52a7.53,7.53,0,0,1,.93-1.36,1.38,1.38,0,0,1,.93-.53,5.26,5.26,0,0,1,2.28.2c.79.26,1.59.51,2.44.77a30,30,0,0,0,12.44.09c3-.56,6.09-1.29,9.22-2.18a71.22,71.22,0,0,0,9.2-3.33,53,53,0,0,0,8.44-4.73,35.46,35.46,0,0,0,7.07-6.44,24.17,24.17,0,0,0,2.67-4.12A15,15,0,0,0,494,11.86,10.3,10.3,0,0,0,493.61,7.08Zm-53,25.51c-1.47-2.34,36.67-40,44-23.13S442.13,34.93,440.65,32.59Z"/><path class="cls-2" d="M230.45,55.26c2.22-1,4.2-2,6.23-2.88a45.15,45.15,0,0,1,5.47-2.07c3.12-.86,5.31.62,5.93,3.78.07.39.15.77.31,1.61,1.43-.79,10.17-5.05,13.67-5.08,3,0,5.42,1.09,6.18,4,3.68-1.17,15.07-5.87,18.66-1.54,1.84,2.27,1.1,4.87.11,7.29-1.68,4.12-11,14.35-9.41,16.32s8.09-3.2,10.88-7.29c4.22-6.17,9.12-11.87,13.85-17.68a4,4,0,0,1,2.82-1.07c3.16,0,6.44.08,9.45.23-3.6,4.87-7.46,9.87-10.92,14.88-1.59,2.28-5.83,7.76-3.5,10.1,1.69,1.68,7-4.52,8.8-6.74,4.73-5.72,9.29-11.59,14-17.31a4.15,4.15,0,0,1,2.72-1.21c3.14-.14,6.3,0,9.45,0,.08.26-20.52,24.18-18.12,26.5S328.5,71.9,331,68c9.65-15.47,22.2-28.35,36.49-39.56A30.47,30.47,0,0,1,381,22c4.47-.77,6.87,1.4,6.17,5.88-.85,5.44-4.11,9.63-7.78,13.62C373,48.39,363.39,52.7,354.77,56c-3.57,1.38-16.55,13.77-13.24,17.9s12.61-2.94,13.72-5.06c5.44-8.07,11.86-15.09,20.92-19.14a23.07,23.07,0,0,1,7.36-2c5.94-.48,7.92.88,10.32,6.31.62-.18,1.24-.4,1.88-.55,2.85-.66,4.35.6,4.15,3.53,0,1.49-1.05,1.17-1.25,1.17-4.37,0-6.65,2.64-8.8,6.11a50.82,50.82,0,0,1-13.93,15.1,19.66,19.66,0,0,1-9.29,3.65c-6.61.76-10.36-2.89-12.22-7.12-.16-.37-.32-.74-.49-1.15-2.23,1.43-10.51,7.65-17.18,8.21-4.06.64-7.57-1.76-9.26-6.1-6.84,5.29-11.34,10.24-21.08,1.13-2.07,1.26-3.95,2.58-6,3.6-5.46,2.61-10.62,2-14.87-3.17-.87-1.07-1.41-.73-2.31-.16-3.94,2.46-8,4.86-12.85,4.76s-7.09-3.66-4.74-7.85c2.15-3.84,5.15-7.2,7.77-10.78A35.31,35.31,0,0,0,276,60.64c3-5.56-8-1.94-26.7,22.5-4.43,0,0,0-9.12,0,2.31-2.87,11.5-16,13.6-18.71,9-12.86-6.57-4.82-23.86,18.79-2.62,0-.55,0-8.92,0,.68-1.12,10.68-15,14.21-19.91,3.16-4.74,1.7-5.67.41-5.31-3,.82-5.7,1.65-7.46,4.82a47.67,47.67,0,0,1-13.64,15.85c-5,3.67-10.53,5.46-16.75,4.08-4.81-1.07-6.93-4.53-5.85-9.37a26.89,26.89,0,0,1,8.12-14.19,49,49,0,0,1,18.9-11,18.24,18.24,0,0,1,4.76-.73c3.36-.07,5.41,1.68,6.14,5C230.06,53.17,230.21,54,230.45,55.26Zm-9.52,8.83c-3.74-1.26-2.4-4.59-3-7-7.57.44-14.77,8.66-14.1,15.93.21,2.15,1.7,3.62,3.79,3.22C213.54,75.91,218.49,68,220.93,64.09ZM380.58,57a11.26,11.26,0,0,0-1.29.19C373.57,58.72,367.37,66,367,71.91a4.91,4.91,0,0,0,1.3,3.73c3.46,3.33,11.92-8,15.46-11.26C380.72,62,381.26,62.42,380.58,57Zm-23.79-9.84c2.33,2,27.42-14.78,23.83-18.59S355,45.6,356.79,47.15Z"/><path class="cls-1" d="M225.11,43.52c5.09,5.16,13.49,3.84,16.17-2.73,1.69-4.11,1-6.76-3.06-8.1a10.07,10.07,0,0,0-2.56-.48c-2.24-.14-3.73.87-3.78,2.68a8.08,8.08,0,0,1-5,7.61C226.26,42.78,225.71,43.17,225.11,43.52Z"/><path class="cls-1" d="M237.82,11.47a23.11,23.11,0,0,0-9.45-4.41A37.12,37.12,0,0,0,215,7.8l0,0a10.91,10.91,0,0,1-1.23.08c-3.58-.09-16.43-5.77-34.88-5.76-41.1-.58-55.38,17.05-55.37,29.73-.06,15.33,29.67,12.92,29.78,8.76.15-5.93-21.95,4.47-21.78-9.92.59-22,48.94-26.67,67.24-17-3.24,2-18.12,4-45.45,33.5-4.63,5-9.23,10.06-14.11,14.83C129.6,71.41,110,91.24,95.43,80.7s-2-31.88,20.25-29c3.06.46.87,2.56.34,3a6.61,6.61,0,0,0-2.37,4.3,8.59,8.59,0,0,0,0,2.33,5.11,5.11,0,0,0,1.69,3.56,6,6,0,0,0,3.79,1.4h.16A5.85,5.85,0,0,0,123,65.16a8.94,8.94,0,0,0,3.11-4.08,10.18,10.18,0,0,0,.64-5.06c-.28-2-2-8-10.61-10.94-9.85-2.65-33.34,2.1-35.23,20.6-.8,7.83,1.55,24.14,26.8,24.55,10.93-.52,20.78-4.56,29.8-10.42,7.34-4.77,24.38-24.09,27.34-26.37.22.1,5.45,1.74,2.13,10.58-2.25,6.22-4.23,12.52-4.89,19.12-.84,8.44,1.91,14.54,10,16.88a36.43,36.43,0,0,0,16.64.78C196.43,99.23,203.18,92,201,89.89s-7.56,1.41-12.16,2.63C156.29,98,181.07,61,180.36,58.1c.63-.21,13.61-1,29.58-11.48,5.2-3.76,9.4-8.3,11.18-14.68,1.52-5.42.77-10.69-1.33-15.8-.6-1.44-.38-2.63,1-3,5.91-1.75,15.27,1.57,15.76,1.5a1.9,1.9,0,0,0,1.18-.61,2.15,2.15,0,0,0,.5-1.11A1.89,1.89,0,0,0,237.82,11.47ZM199.7,44.64c-18,12.91-29.39,2.76-30,2.69,0,0,22.32-24.7,39.31-31.18C211.74,19.12,220.77,29.54,199.7,44.64Z"/><path class="cls-1" d="M28.72,2.16a23.2,23.2,0,0,1,7.9,1.39l-.9,4.33a21.55,21.55,0,0,0-3.41-1,16.9,16.9,0,0,0-3.23-.31,13.13,13.13,0,0,0-3.83.54,11,11,0,0,0-3.14,1.48,11.12,11.12,0,0,0-2.39,2.25A12.52,12.52,0,0,0,18,13.68a15.46,15.46,0,0,0-1,3.18,17.39,17.39,0,0,0-.33,3.36,8.17,8.17,0,0,0,1.54,5.4,5.71,5.71,0,0,0,4.62,1.82,10.61,10.61,0,0,0,2.64-.32,6.28,6.28,0,0,0,2.18-1,5.88,5.88,0,0,0,1.62-1.74,7.81,7.81,0,0,0,1-2.57l.28-1.44h-6.4l.9-4.38H36.7l-1.32,6.4A12.76,12.76,0,0,1,33.56,27a10.23,10.23,0,0,1-3,2.9,11.69,11.69,0,0,1-3.82,1.53,20.85,20.85,0,0,1-4.38.45A12.82,12.82,0,0,1,18,31.14,9.63,9.63,0,0,1,14.55,29a9.79,9.79,0,0,1-2.26-3.53,13.33,13.33,0,0,1-.82-4.87A22.53,22.53,0,0,1,12,15.68a19,19,0,0,1,1.54-4.41A16.9,16.9,0,0,1,16,7.54a15.33,15.33,0,0,1,3.4-2.87,16.45,16.45,0,0,1,4.25-1.86A18.83,18.83,0,0,1,28.72,2.16Z"/><path class="cls-1" d="M53.64,14.94a7.53,7.53,0,0,0-1.78-.22,7.68,7.68,0,0,0-1.56.17,6.34,6.34,0,0,0-1.54.56,6.15,6.15,0,0,0-1.41,1A5.77,5.77,0,0,0,46.19,18a7.78,7.78,0,0,0-.46,1.09,15.21,15.21,0,0,0-.46,1.78L43.11,31.33h-5l4.3-20.74h4.3V13.2h.09a9.45,9.45,0,0,1,2.72-2.3,7.1,7.1,0,0,1,3.5-.82,10.56,10.56,0,0,1,1.65.13Z"/><path class="cls-1" d="M62.12,31.87a12.07,12.07,0,0,1-3.52-.46,6.53,6.53,0,0,1-2.41-1.3,4.94,4.94,0,0,1-1.38-2,7.28,7.28,0,0,1-.44-2.56,8.27,8.27,0,0,1,.08-1q.07-.57.24-1.47l2.57-12.46h5.05L59.7,23.22c-.07.34-.12.66-.15,1a7.77,7.77,0,0,0,0,.8,2.79,2.79,0,0,0,.71,2,3.1,3.1,0,0,0,2.29.72,5.2,5.2,0,0,0,1.91-.31,3.45,3.45,0,0,0,1.36-.9,4.61,4.61,0,0,0,.91-1.43,10.27,10.27,0,0,0,.57-1.89l2.61-12.59h5L72,24.57a12.22,12.22,0,0,1-.93,2.73,7.39,7.39,0,0,1-1.79,2.33,8.48,8.48,0,0,1-2.91,1.62A13,13,0,0,1,62.12,31.87Z"/><path class="cls-1" d="M90.1,10.08a5.42,5.42,0,0,1,2.46.55,5.82,5.82,0,0,1,1.92,1.5,7,7,0,0,1,1.24,2.36,10.36,10.36,0,0,1,.44,3.1,17.58,17.58,0,0,1-.33,3.34,17.6,17.6,0,0,1-1,3.3,16.11,16.11,0,0,1-1.55,3,11.34,11.34,0,0,1-2.13,2.43,9.49,9.49,0,0,1-2.72,1.64,8.82,8.82,0,0,1-3.22.6,7.21,7.21,0,0,1-2.48-.41,6,6,0,0,1-1.88-1.07h-.09L78.54,41.28H73.49l6.36-30.69h4.34V13.2h.09a9.22,9.22,0,0,1,1-1.16,7.2,7.2,0,0,1,1.31-1,8.12,8.12,0,0,1,1.59-.69A6.23,6.23,0,0,1,90.1,10.08ZM81.6,26.51a5,5,0,0,0,1.37.86,4.42,4.42,0,0,0,1.78.34,4.08,4.08,0,0,0,1.82-.42,5.45,5.45,0,0,0,1.55-1.18,8.55,8.55,0,0,0,1.24-1.75,13.36,13.36,0,0,0,.93-2.11,13.81,13.81,0,0,0,.58-2.32,14.23,14.23,0,0,0,.19-2.32,4.64,4.64,0,0,0-.57-2.46,2,2,0,0,0-1.8-.92,4.22,4.22,0,0,0-2.24.74,7.22,7.22,0,0,0-2.11,2.15,10,10,0,0,0-1,1.93,15.26,15.26,0,0,0-.73,2.5Z"/><path class="cls-1" d="M109.92,10.08a10.5,10.5,0,0,1,3.33.49A7,7,0,0,1,115.8,12a6.6,6.6,0,0,1,1.64,2.46A9.6,9.6,0,0,1,118,18a18.68,18.68,0,0,1-.74,5.26,13.61,13.61,0,0,1-2.22,4.44,10.86,10.86,0,0,1-3.65,3.07,10.75,10.75,0,0,1-5.05,1.15,10.56,10.56,0,0,1-3.32-.5,6.82,6.82,0,0,1-2.55-1.46,6.53,6.53,0,0,1-1.64-2.45A9.41,9.41,0,0,1,98.26,24,18.21,18.21,0,0,1,99,18.74a13.76,13.76,0,0,1,2.22-4.45,10.94,10.94,0,0,1,3.64-3.07A10.77,10.77,0,0,1,109.92,10.08Zm-.42,4.15a4.36,4.36,0,0,0-1.89.41,5.2,5.2,0,0,0-1.54,1.12,7.9,7.9,0,0,0-1.19,1.66,12.59,12.59,0,0,0-.84,2,13.76,13.76,0,0,0-.51,2.22,14,14,0,0,0-.17,2.22,4.37,4.37,0,0,0,.82,2.81,3.14,3.14,0,0,0,2.6,1,4.34,4.34,0,0,0,1.88-.4,5.11,5.11,0,0,0,1.54-1.13,7.36,7.36,0,0,0,1.2-1.66,10.74,10.74,0,0,0,.85-2,14.89,14.89,0,0,0,.5-2.22,15.79,15.79,0,0,0,.17-2.24,4.3,4.3,0,0,0-.83-2.78A3.13,3.13,0,0,0,109.5,14.23Z"/></svg>