<?xml version="1.0" encoding="utf-8"?>
<!-- Generator: Adobe Illustrator 27.2.0, SVG Export Plug-In . SVG Version: 6.00 Build 0)  -->
<svg version="1.1" id="Layer_1" xmlns="http://www.w3.org/2000/svg" xmlns:xlink="http://www.w3.org/1999/xlink" x="0px" y="0px"
	 viewBox="0 0 25 25" style="enable-background:new 0 0 25 25;" xml:space="preserve">
<style type="text/css">
	.st0{fill:#FFFFFF;}
	.st1{fill-rule:evenodd;clip-rule:evenodd;fill:#FFFFFF;}
</style>
<g>
	<path class="st0" d="M22,21.1c-0.1,0.3-0.3,0.6-0.7,0.6c-0.1,0-0.2,0-0.3,0c-5.5,0-11,0-16.5,0c-0.4,0-0.7-0.1-0.9-0.5
		c-0.2-0.3-0.1-0.6,0.1-0.9C4,20.1,4.2,20,4.4,20c0.1,0,0.1,0,0.2,0c5.4,0,10.8,0,16.2,0c0.5,0,0.9,0.1,1.1,0.7
		C22,20.8,22,20.9,22,21.1z"/>
	<path class="st0" d="M11.5,14.6c-0.7,0.2-1.3,0.4-1.9,0.6c-1.4,0.5-2.8,0.9-4.3,1.4c-0.1,0-0.1,0-0.2,0.1c-0.2,0-0.4-0.1-0.5-0.3
		c-0.1-0.2,0-0.4,0.2-0.5c0.1-0.1,0.2-0.1,0.3-0.2c0.1,0,0.2-0.1,0.3-0.2c0-0.1-0.1-0.1-0.1-0.2c-0.7-0.9-1.4-1.8-2.2-2.7
		c-0.3-0.4-0.2-0.6,0.2-0.8c0.8-0.4,0.6-0.4,1.3,0c0.9,0.5,1.9,1,2.8,1.5c0.1,0.1,0.2,0.1,0.3,0c2.9-1.5,5.7-3,8.6-4.5
		c0.6-0.3,1.3-0.6,1.9-0.8C18.5,8,18.9,8,19.2,8c0.4,0,0.9-0.1,1.3-0.1c0.3,0,0.5,0.1,0.8,0.2c0.4,0.2,0.5,0.6,0.3,1
		c-0.2,0.4-0.5,0.6-0.9,0.8c-0.8,0.4-1.6,0.9-2.4,1.3c-0.8,0.4-1.6,0.8-2.4,1.3c-0.1,0.1-0.2,0.1-0.3,0.2c-1.1,1.2-2.2,2.4-3.4,3.5
		c-0.1,0.1-0.3,0.2-0.4,0.3c-0.3,0.2-0.6,0.3-1,0.5c-0.2,0.1-0.4,0.1-0.5,0c-0.1-0.1-0.1-0.3,0-0.5C10.7,15.9,11.1,15.3,11.5,14.6z"
		/>
</g>
</svg>
