<?xml version="1.0" encoding="utf-8"?>
<!-- Generator: Adobe Illustrator 27.2.0, SVG Export Plug-In . SVG Version: 6.00 Build 0)  -->
<svg version="1.1" id="Layer_1" xmlns="http://www.w3.org/2000/svg" xmlns:xlink="http://www.w3.org/1999/xlink" x="0px" y="0px"
	 viewBox="0 0 25 25" style="enable-background:new 0 0 25 25;" xml:space="preserve">
<style type="text/css">
	.st0{fill:#FFFFFF;}
	.st1{fill-rule:evenodd;clip-rule:evenodd;fill:#F53838;}
</style>
<g>
	<path class="st0" d="M21.7,4.9c-0.1,0.2-0.2,0.5-0.3,0.7C21,6,20.5,6.1,19.9,6c-0.1,0-0.2,0-0.2,0c-0.4,0.3-0.8,0.4-1.3,0.3
		c-0.1,0-0.2,0-0.2,0c-0.3,0.2-0.6,0.2-0.9,0c-0.3-0.2-0.4-0.5-0.4-0.8c0-0.4,0.3-0.6,0.6-0.7c0.1,0,0.1-0.1,0.2-0.1
		C18,4.2,18.4,3.9,19,4c0.1,0,0.2,0,0.2-0.1c0.4-0.5,0.8-0.7,1.4-0.5c0.6,0.1,0.9,0.5,1,1c0,0,0,0,0,0.1C21.7,4.6,21.7,4.8,21.7,4.9
		z"/>
	<path class="st0" d="M5.8,12c0-0.1,0-0.1,0-0.2c0-0.9,0-1.8,0-2.8c0-0.4,0.1-0.6,0.6-0.6c0.8,0,1.7,0,2.5,0c0.4,0,0.6,0.2,0.6,0.6
		c0,0.9,0,1.8,0,2.7c0,0.1,0,0.1,0,0.2c0.1,0,0.1,0,0.2,0c0.6,0,1.1,0,1.7,0c0.4,0,0.6,0.2,0.6,0.6c0,1.2,0,2.3,0,3.5
		c0,0.1,0,0.1,0,0.2c1.5,0,3,0,4.5,0c0-0.1,0-0.1,0-0.2c0-2.3,0-4.5,0-6.8c0-0.5,0.1-0.6,0.6-0.6c0.8,0,1.7,0,2.5,0
		c0.4,0,0.6,0.1,0.6,0.6c0,3.9,0,7.9,0,11.8c0,0.4-0.2,0.6-0.6,0.6c-5.2,0-10.5,0-15.7,0c-0.4,0-0.6-0.2-0.6-0.6c0-2.8,0-5.7,0-8.5
		c0-0.4,0.1-0.6,0.6-0.6c0.6,0,1.1,0,1.7,0C5.6,12,5.7,12,5.8,12z M11.8,21c2.3,0,4.6,0,6.8,0c0-0.7,0-1.3,0-1.9c-2.3,0-4.6,0-6.8,0
		C11.8,19.7,11.8,20.3,11.8,21z M10.5,17.7c0-1.4,0-2.7,0-4.1c-0.8,0-1.5,0-2.2,0c0,1.4,0,2.7,0,4.1C9,17.7,9.8,17.7,10.5,17.7z
		 M7,13.7c-0.8,0-1.5,0-2.2,0c0,1.4,0,2.7,0,4c0.8,0,1.5,0,2.2,0C7,16.4,7,15,7,13.7z M10.5,21c0-0.7,0-1.3,0-1.9
		c-0.8,0-1.5,0-2.2,0c0,0.7,0,1.3,0,1.9C9,21,9.8,21,10.5,21z M7,21c0-0.7,0-1.3,0-1.9c-0.7,0-1.5,0-2.2,0c0,0.7,0,1.3,0,1.9
		C5.5,21,6.2,21,7,21z"/>
	<path class="st0" d="M9.9,6.1C9.8,6,9.6,6,9.5,6C9.4,6,9.3,6,9.3,6C8.9,6.4,8.5,6.5,8,6.3c-0.1,0-0.2,0-0.2,0
		c-0.3,0.2-0.6,0.2-0.9,0C6.6,6.1,6.5,5.9,6.6,5.6c0-0.4,0.2-0.6,0.6-0.7c0.1,0,0.1-0.1,0.2-0.1C7.6,4.2,8,3.9,8.6,4
		c0.1,0,0.2,0,0.2-0.1c0.4-0.5,1.1-0.7,1.6-0.4c0.6,0.3,0.9,0.9,0.8,1.5C11.1,5.6,10.6,6,9.9,6.1z"/>
</g>
</svg>
