<?xml version="1.0" encoding="utf-8"?>
<!-- Generator: Adobe Illustrator 27.2.0, SVG Export Plug-In . SVG Version: 6.00 Build 0)  -->
<svg version="1.1" id="Layer_1" xmlns="http://www.w3.org/2000/svg" xmlns:xlink="http://www.w3.org/1999/xlink" x="0px" y="0px"
	 viewBox="0 0 25 25" style="enable-background:new 0 0 25 25;" xml:space="preserve">
<style type="text/css">
	.st0{fill:#FFFFFF;}
</style>
<g>
	<path class="st0" d="M13,9.8c0,0,2,2,2,1.9c0.5,0.7,0.8,1.3,0.8,2.1c0,0.6-0.1,1.1-0.5,1.5s-0.8,0.7-1.3,1c-0.8,0.4-1.3,1-1.5,1.9
		c-0.1,0.5-0.2,0.9-0.3,1.4c-0.3,0.9-0.7,1.6-1.5,2.1c-1,0.5-1.9,0.5-2.9,0c-0.9-0.4-1.8-1-2.5-1.8c-0.5-0.6-1.1-1.1-1.5-1.8
		c-0.4-0.6-0.7-1.2-0.7-2l0,0C3,15.9,3,15.7,3,15.5s0.1-0.4,0.1-0.6c0.3-1,1-1.7,2-2c0.4-0.1,0.8-0.2,1.2-0.3
		c1.1-0.2,1.9-0.7,2.4-1.7c0.2-0.4,0.6-0.8,0.9-1.2c0.4-0.5,1-0.7,1.7-0.6C11.9,9.2,12.5,9.4,13,9.8 M12.3,14.6c0-1-0.9-1.8-0.9-1.8
		c-0.4-0.3-1.1-0.3-1.1-0.3c-1,0.1-1.7,0.8-1.7,1.7c-0.1,1,0.6,1.8,1.5,2C11.2,16.4,12.2,15.6,12.3,14.6 M8.8,18.7
		c0,0-0.1-0.1-0.1-0.2c-0.7-0.7-1.4-1.4-2.1-2.2c0,0-0.1-0.1-0.2-0.1s-0.2,0-0.3,0.1c-0.1,0.1,0,0.3,0.1,0.4
		c0.7,0.7,1.4,1.4,2.1,2.1l0.1,0.1C8.5,19.1,8.7,19,8.8,18.7z"/>
	<path class="st0" d="M20.7,3c0.4,0.4,0.7,0.7,1.1,1.1C22,4.2,22,4.3,22,4.5c0,0.1,0,0.1,0,0.2c0,0.2,0,0.5-0.3,0.6
		c0.1,0.1,0.1,0.1,0.2,0.2s0.1,0.2,0,0.3c-0.1,0-0.2,0-0.3,0c-0.1,0-0.1-0.1-0.2-0.2c-0.2,0.2-0.3,0.3-0.5,0.5
		C21,6.2,21,6.2,21.1,6.3s0.1,0.2,0,0.3c-0.1,0-0.2,0-0.3,0c-0.1,0-0.1-0.1-0.2-0.2c-0.3,0.4-0.7,0.2-1,0.2c0,0-0.1,0-0.1-0.1
		c-0.4-0.4-0.7-0.7-1.1-1.1c0,0-0.1,0-0.1-0.1c0-0.2,0-0.4,0-0.5c0-0.2,0-0.4,0.2-0.5c0,0,0,0,0.1-0.1c-0.1-0.1-0.2-0.1-0.2-0.2
		s0-0.2,0-0.3c0.1-0.1,0.2-0.1,0.3,0C18.8,3.8,18.9,3.9,19,4c0.1-0.1,0.1-0.2,0.2-0.2c0.1-0.1,0.2-0.1,0.2-0.2
		c-0.3-0.4-0.3-0.4-0.1-0.6h0.1c0.1,0.1,0.2,0.2,0.3,0.2C19.8,3.1,19.8,3,19.9,3C20.2,3,20.5,3,20.7,3z"/>
	<path class="st0" d="M11.7,12.5c2.1-2.2,4.3-4.4,6.5-6.6c0.3,0.3,0.6,0.6,1,1c-2.2,2.2-4.4,4.4-6.7,6.7"/>
	<path class="st0" d="M10.5,13.2c0.7,0,1.3,0.6,1.3,1.3s-0.6,1.3-1.3,1.3s-1.3-0.6-1.3-1.3S9.8,13.2,10.5,13.2z"/>
</g>
</svg>
